<mxfile host="app.diagrams.net" modified="2020-05-23T12:41:23.455Z" agent="5.0 (Windows NT 10.0; WOW64) AppleWebKit/537.36 (KHTML, like Gecko) Chrome/81.0.4044.138 Safari/537.36" etag="WMGFGF2UCCEzfEOarLoK" version="13.1.3" type="github" pages="4">
  <diagram id="sxW8surN2ddxBhKWo7tJ" name="Page-1">
    <mxGraphModel dx="596" dy="509" grid="1" gridSize="10" guides="1" tooltips="1" connect="1" arrows="1" fold="1" page="1" pageScale="1" pageWidth="827" pageHeight="1169" math="0" shadow="0">
      <root>
        <mxCell id="0" />
        <mxCell id="1" parent="0" />
        <mxCell id="7ll05-rVt_kI2r7niW4d-1" value="" style="rounded=0;whiteSpace=wrap;html=1;" parent="1" vertex="1">
          <mxGeometry x="100" y="100" width="640" height="360" as="geometry" />
        </mxCell>
        <mxCell id="7ll05-rVt_kI2r7niW4d-2" value="" style="endArrow=none;html=1;entryX=0;entryY=0.25;entryDx=0;entryDy=0;exitX=1;exitY=0.25;exitDx=0;exitDy=0;" parent="1" source="7ll05-rVt_kI2r7niW4d-1" target="7ll05-rVt_kI2r7niW4d-1" edge="1">
          <mxGeometry width="50" height="50" relative="1" as="geometry">
            <mxPoint x="230" y="290" as="sourcePoint" />
            <mxPoint x="280" y="240" as="targetPoint" />
          </mxGeometry>
        </mxCell>
        <mxCell id="7ll05-rVt_kI2r7niW4d-5" value="" style="endArrow=none;html=1;entryX=0;entryY=0.25;entryDx=0;entryDy=0;exitX=1;exitY=0.25;exitDx=0;exitDy=0;" parent="1" edge="1">
          <mxGeometry width="50" height="50" relative="1" as="geometry">
            <mxPoint x="739.9999999999998" y="279.29" as="sourcePoint" />
            <mxPoint x="100" y="279.29" as="targetPoint" />
          </mxGeometry>
        </mxCell>
        <mxCell id="7ll05-rVt_kI2r7niW4d-6" value="" style="endArrow=none;html=1;entryX=0;entryY=0.25;entryDx=0;entryDy=0;exitX=1;exitY=0.25;exitDx=0;exitDy=0;" parent="1" edge="1">
          <mxGeometry width="50" height="50" relative="1" as="geometry">
            <mxPoint x="739.9999999999998" y="369.99999999999994" as="sourcePoint" />
            <mxPoint x="100" y="369.99999999999994" as="targetPoint" />
          </mxGeometry>
        </mxCell>
        <mxCell id="7ll05-rVt_kI2r7niW4d-7" value="&lt;font style=&quot;font-size: 24px&quot;&gt;输入登录/注册信息&lt;/font&gt;" style="text;html=1;strokeColor=none;fillColor=none;align=center;verticalAlign=middle;whiteSpace=wrap;rounded=0;" parent="1" vertex="1">
          <mxGeometry x="298.75" y="130" width="218.5" height="40" as="geometry" />
        </mxCell>
        <mxCell id="7ll05-rVt_kI2r7niW4d-9" value="" style="endArrow=none;html=1;entryX=0;entryY=0.25;entryDx=0;entryDy=0;exitX=0;exitY=0.5;exitDx=0;exitDy=0;exitPerimeter=0;" parent="1" source="7ll05-rVt_kI2r7niW4d-11" target="7ll05-rVt_kI2r7niW4d-1" edge="1">
          <mxGeometry width="50" height="50" relative="1" as="geometry">
            <mxPoint x="420" y="280" as="sourcePoint" />
            <mxPoint x="400" y="250" as="targetPoint" />
          </mxGeometry>
        </mxCell>
        <mxCell id="7ll05-rVt_kI2r7niW4d-11" value="" style="line;strokeWidth=2;direction=south;html=1;" parent="1" vertex="1">
          <mxGeometry x="403" y="280" width="10" height="90" as="geometry" />
        </mxCell>
        <mxCell id="7ll05-rVt_kI2r7niW4d-12" value="" style="endArrow=none;html=1;entryX=1;entryY=0.25;entryDx=0;entryDy=0;exitX=0;exitY=0.5;exitDx=0;exitDy=0;exitPerimeter=0;" parent="1" source="7ll05-rVt_kI2r7niW4d-11" target="7ll05-rVt_kI2r7niW4d-1" edge="1">
          <mxGeometry width="50" height="50" relative="1" as="geometry">
            <mxPoint x="418" y="290" as="sourcePoint" />
            <mxPoint x="110" y="200" as="targetPoint" />
          </mxGeometry>
        </mxCell>
        <mxCell id="7ll05-rVt_kI2r7niW4d-13" value="&lt;font style=&quot;font-size: 24px&quot;&gt;登录/注册成功？&lt;/font&gt;" style="text;html=1;strokeColor=none;fillColor=none;align=center;verticalAlign=middle;whiteSpace=wrap;rounded=0;" parent="1" vertex="1">
          <mxGeometry x="313" y="210" width="200" height="30" as="geometry" />
        </mxCell>
        <mxCell id="7ll05-rVt_kI2r7niW4d-15" value="&lt;font style=&quot;font-size: 24px&quot;&gt;Y&lt;/font&gt;" style="text;html=1;strokeColor=none;fillColor=none;align=center;verticalAlign=middle;whiteSpace=wrap;rounded=0;" parent="1" vertex="1">
          <mxGeometry x="150" y="240" width="40" height="20" as="geometry" />
        </mxCell>
        <mxCell id="7ll05-rVt_kI2r7niW4d-16" value="&lt;font style=&quot;font-size: 24px&quot;&gt;N&lt;/font&gt;" style="text;html=1;strokeColor=none;fillColor=none;align=center;verticalAlign=middle;whiteSpace=wrap;rounded=0;" parent="1" vertex="1">
          <mxGeometry x="650" y="240" width="40" height="20" as="geometry" />
        </mxCell>
        <mxCell id="7ll05-rVt_kI2r7niW4d-17" value="&lt;font style=&quot;font-size: 24px&quot;&gt;SUCCESS&lt;/font&gt;" style="text;html=1;strokeColor=none;fillColor=none;align=center;verticalAlign=middle;whiteSpace=wrap;rounded=0;" parent="1" vertex="1">
          <mxGeometry x="150" y="310" width="200" height="30" as="geometry" />
        </mxCell>
        <mxCell id="7ll05-rVt_kI2r7niW4d-18" value="&lt;font style=&quot;font-size: 24px&quot;&gt;ERROR&lt;/font&gt;" style="text;html=1;strokeColor=none;fillColor=none;align=center;verticalAlign=middle;whiteSpace=wrap;rounded=0;" parent="1" vertex="1">
          <mxGeometry x="500" y="310" width="200" height="30" as="geometry" />
        </mxCell>
        <mxCell id="7ll05-rVt_kI2r7niW4d-19" value="&lt;span style=&quot;font-size: 24px&quot;&gt;返回原页面&lt;/span&gt;" style="text;html=1;strokeColor=none;fillColor=none;align=center;verticalAlign=middle;whiteSpace=wrap;rounded=0;" parent="1" vertex="1">
          <mxGeometry x="308" y="400" width="200" height="30" as="geometry" />
        </mxCell>
      </root>
    </mxGraphModel>
  </diagram>
  <diagram id="0YZLI6wg2qOWeHZlVF6r" name="Page-2">
    <mxGraphModel dx="596" dy="509" grid="1" gridSize="10" guides="1" tooltips="1" connect="1" arrows="1" fold="1" page="1" pageScale="1" pageWidth="827" pageHeight="1169" math="0" shadow="0">
      <root>
        <mxCell id="MGEpE5A_JS1_uIf1XAGH-0" />
        <mxCell id="MGEpE5A_JS1_uIf1XAGH-1" parent="MGEpE5A_JS1_uIf1XAGH-0" />
        <mxCell id="S_qBKaC4ZwfdV5uZxtR--0" value="" style="rounded=0;whiteSpace=wrap;html=1;" vertex="1" parent="MGEpE5A_JS1_uIf1XAGH-1">
          <mxGeometry x="150" y="120" width="490" height="330" as="geometry" />
        </mxCell>
        <mxCell id="S_qBKaC4ZwfdV5uZxtR--2" value="" style="endArrow=none;html=1;entryX=0;entryY=0.25;entryDx=0;entryDy=0;exitX=1;exitY=0.25;exitDx=0;exitDy=0;" edge="1" parent="MGEpE5A_JS1_uIf1XAGH-1">
          <mxGeometry width="50" height="50" relative="1" as="geometry">
            <mxPoint x="640" y="250" as="sourcePoint" />
            <mxPoint x="150" y="250" as="targetPoint" />
          </mxGeometry>
        </mxCell>
        <mxCell id="S_qBKaC4ZwfdV5uZxtR--3" value="" style="endArrow=none;html=1;entryX=0;entryY=0.25;entryDx=0;entryDy=0;exitX=1;exitY=0.25;exitDx=0;exitDy=0;" edge="1" parent="MGEpE5A_JS1_uIf1XAGH-1">
          <mxGeometry width="50" height="50" relative="1" as="geometry">
            <mxPoint x="640" y="180" as="sourcePoint" />
            <mxPoint x="150" y="180" as="targetPoint" />
          </mxGeometry>
        </mxCell>
        <mxCell id="S_qBKaC4ZwfdV5uZxtR--4" value="" style="endArrow=none;html=1;entryX=0;entryY=0.25;entryDx=0;entryDy=0;exitX=0.506;exitY=0.76;exitDx=0;exitDy=0;exitPerimeter=0;" edge="1" parent="MGEpE5A_JS1_uIf1XAGH-1" source="S_qBKaC4ZwfdV5uZxtR--9">
          <mxGeometry width="50" height="50" relative="1" as="geometry">
            <mxPoint x="640" y="320" as="sourcePoint" />
            <mxPoint x="150" y="320" as="targetPoint" />
          </mxGeometry>
        </mxCell>
        <mxCell id="S_qBKaC4ZwfdV5uZxtR--5" value="" style="endArrow=none;html=1;entryX=0;entryY=0.25;entryDx=0;entryDy=0;exitX=1;exitY=0.25;exitDx=0;exitDy=0;" edge="1" parent="MGEpE5A_JS1_uIf1XAGH-1">
          <mxGeometry width="50" height="50" relative="1" as="geometry">
            <mxPoint x="640" y="390" as="sourcePoint" />
            <mxPoint x="150" y="390" as="targetPoint" />
          </mxGeometry>
        </mxCell>
        <mxCell id="S_qBKaC4ZwfdV5uZxtR--6" value="&lt;font style=&quot;font-size: 18px&quot;&gt;登录&lt;/font&gt;" style="text;html=1;strokeColor=none;fillColor=none;align=center;verticalAlign=middle;whiteSpace=wrap;rounded=0;" vertex="1" parent="MGEpE5A_JS1_uIf1XAGH-1">
          <mxGeometry x="360" y="140" width="70" height="20" as="geometry" />
        </mxCell>
        <mxCell id="S_qBKaC4ZwfdV5uZxtR--7" value="&lt;font style=&quot;font-size: 18px&quot;&gt;Y&lt;/font&gt;" style="text;html=1;strokeColor=none;fillColor=none;align=center;verticalAlign=middle;whiteSpace=wrap;rounded=0;" vertex="1" parent="MGEpE5A_JS1_uIf1XAGH-1">
          <mxGeometry x="180" y="220" width="70" height="20" as="geometry" />
        </mxCell>
        <mxCell id="S_qBKaC4ZwfdV5uZxtR--8" value="" style="endArrow=none;html=1;" edge="1" parent="MGEpE5A_JS1_uIf1XAGH-1">
          <mxGeometry width="50" height="50" relative="1" as="geometry">
            <mxPoint x="540" y="250" as="sourcePoint" />
            <mxPoint x="150" y="180" as="targetPoint" />
          </mxGeometry>
        </mxCell>
        <mxCell id="S_qBKaC4ZwfdV5uZxtR--9" value="" style="line;strokeWidth=2;direction=south;html=1;" vertex="1" parent="MGEpE5A_JS1_uIf1XAGH-1">
          <mxGeometry x="540" y="250" width="10" height="140" as="geometry" />
        </mxCell>
        <mxCell id="S_qBKaC4ZwfdV5uZxtR--10" value="" style="endArrow=none;html=1;entryX=0;entryY=0.5;entryDx=0;entryDy=0;entryPerimeter=0;" edge="1" parent="MGEpE5A_JS1_uIf1XAGH-1" target="S_qBKaC4ZwfdV5uZxtR--9">
          <mxGeometry width="50" height="50" relative="1" as="geometry">
            <mxPoint x="430" y="320" as="sourcePoint" />
            <mxPoint x="440" y="270" as="targetPoint" />
          </mxGeometry>
        </mxCell>
        <mxCell id="S_qBKaC4ZwfdV5uZxtR--11" value="" style="endArrow=none;html=1;" edge="1" parent="MGEpE5A_JS1_uIf1XAGH-1">
          <mxGeometry width="50" height="50" relative="1" as="geometry">
            <mxPoint x="150" y="250" as="sourcePoint" />
            <mxPoint x="290" y="320" as="targetPoint" />
          </mxGeometry>
        </mxCell>
        <mxCell id="S_qBKaC4ZwfdV5uZxtR--12" value="" style="endArrow=none;html=1;entryX=1.003;entryY=0.182;entryDx=0;entryDy=0;entryPerimeter=0;exitX=0;exitY=0.5;exitDx=0;exitDy=0;exitPerimeter=0;" edge="1" parent="MGEpE5A_JS1_uIf1XAGH-1" source="S_qBKaC4ZwfdV5uZxtR--9" target="S_qBKaC4ZwfdV5uZxtR--0">
          <mxGeometry width="50" height="50" relative="1" as="geometry">
            <mxPoint x="540" y="255" as="sourcePoint" />
            <mxPoint x="590" y="205" as="targetPoint" />
          </mxGeometry>
        </mxCell>
        <mxCell id="S_qBKaC4ZwfdV5uZxtR--13" value="&lt;font style=&quot;font-size: 18px&quot;&gt;N&lt;/font&gt;" style="text;html=1;strokeColor=none;fillColor=none;align=center;verticalAlign=middle;whiteSpace=wrap;rounded=0;" vertex="1" parent="MGEpE5A_JS1_uIf1XAGH-1">
          <mxGeometry x="570" y="220" width="70" height="20" as="geometry" />
        </mxCell>
        <mxCell id="S_qBKaC4ZwfdV5uZxtR--14" value="&lt;font style=&quot;font-size: 18px&quot;&gt;登录成功？&lt;/font&gt;" style="text;html=1;strokeColor=none;fillColor=none;align=center;verticalAlign=middle;whiteSpace=wrap;rounded=0;" vertex="1" parent="MGEpE5A_JS1_uIf1XAGH-1">
          <mxGeometry x="460" y="200" width="110" height="20" as="geometry" />
        </mxCell>
        <mxCell id="Mwpae4g8SHXylxaNf_YD-0" value="&lt;font style=&quot;font-size: 18px&quot;&gt;选择模块&lt;/font&gt;" style="text;html=1;strokeColor=none;fillColor=none;align=center;verticalAlign=middle;whiteSpace=wrap;rounded=0;" vertex="1" parent="MGEpE5A_JS1_uIf1XAGH-1">
          <mxGeometry x="320" y="275" width="90" height="20" as="geometry" />
        </mxCell>
        <mxCell id="Mwpae4g8SHXylxaNf_YD-1" value="&lt;font style=&quot;font-size: 18px&quot;&gt;显示不同页面&lt;/font&gt;" style="text;html=1;strokeColor=none;fillColor=none;align=center;verticalAlign=middle;whiteSpace=wrap;rounded=0;" vertex="1" parent="MGEpE5A_JS1_uIf1XAGH-1">
          <mxGeometry x="340" y="410" width="130" height="20" as="geometry" />
        </mxCell>
        <mxCell id="Mwpae4g8SHXylxaNf_YD-2" value="" style="line;strokeWidth=2;direction=south;html=1;" vertex="1" parent="MGEpE5A_JS1_uIf1XAGH-1">
          <mxGeometry x="240" y="320" width="10" height="70" as="geometry" />
        </mxCell>
        <mxCell id="Mwpae4g8SHXylxaNf_YD-3" value="" style="line;strokeWidth=2;direction=south;html=1;" vertex="1" parent="MGEpE5A_JS1_uIf1XAGH-1">
          <mxGeometry x="340" y="320" width="10" height="70" as="geometry" />
        </mxCell>
        <mxCell id="Mwpae4g8SHXylxaNf_YD-4" value="" style="line;strokeWidth=2;direction=south;html=1;" vertex="1" parent="MGEpE5A_JS1_uIf1XAGH-1">
          <mxGeometry x="440" y="320" width="10" height="70" as="geometry" />
        </mxCell>
        <mxCell id="Mwpae4g8SHXylxaNf_YD-5" value="&lt;font style=&quot;font-size: 18px&quot;&gt;返回首页模块&lt;/font&gt;" style="text;html=1;strokeColor=none;fillColor=none;align=center;verticalAlign=middle;whiteSpace=wrap;rounded=0;" vertex="1" parent="MGEpE5A_JS1_uIf1XAGH-1">
          <mxGeometry x="560" y="320" width="70" height="20" as="geometry" />
        </mxCell>
        <mxCell id="Mwpae4g8SHXylxaNf_YD-6" value="&lt;span style=&quot;font-size: 18px&quot;&gt;“世界”&lt;/span&gt;" style="text;html=1;strokeColor=none;fillColor=none;align=center;verticalAlign=middle;whiteSpace=wrap;rounded=0;" vertex="1" parent="MGEpE5A_JS1_uIf1XAGH-1">
          <mxGeometry x="170" y="345" width="50" height="20" as="geometry" />
        </mxCell>
        <mxCell id="Mwpae4g8SHXylxaNf_YD-7" value="&lt;span style=&quot;font-size: 18px&quot;&gt;“搜索”&lt;/span&gt;" style="text;html=1;strokeColor=none;fillColor=none;align=center;verticalAlign=middle;whiteSpace=wrap;rounded=0;" vertex="1" parent="MGEpE5A_JS1_uIf1XAGH-1">
          <mxGeometry x="270" y="345" width="50" height="20" as="geometry" />
        </mxCell>
        <mxCell id="Mwpae4g8SHXylxaNf_YD-8" value="&lt;span style=&quot;font-size: 18px&quot;&gt;“发布”&lt;/span&gt;" style="text;html=1;strokeColor=none;fillColor=none;align=center;verticalAlign=middle;whiteSpace=wrap;rounded=0;" vertex="1" parent="MGEpE5A_JS1_uIf1XAGH-1">
          <mxGeometry x="370" y="345" width="50" height="20" as="geometry" />
        </mxCell>
        <mxCell id="Mwpae4g8SHXylxaNf_YD-9" value="&lt;span style=&quot;font-size: 18px&quot;&gt;“我的”&lt;/span&gt;" style="text;html=1;strokeColor=none;fillColor=none;align=center;verticalAlign=middle;whiteSpace=wrap;rounded=0;" vertex="1" parent="MGEpE5A_JS1_uIf1XAGH-1">
          <mxGeometry x="470" y="345" width="50" height="20" as="geometry" />
        </mxCell>
      </root>
    </mxGraphModel>
  </diagram>
  <diagram id="qhCcd4_bT-x0RHZgFCYb" name="Page-3">
    <mxGraphModel dx="678" dy="509" grid="1" gridSize="10" guides="1" tooltips="1" connect="1" arrows="1" fold="1" page="1" pageScale="1" pageWidth="827" pageHeight="1169" math="0" shadow="0">
      <root>
        <mxCell id="iqIT6XZ10szQbg6U9BTh-0" />
        <mxCell id="iqIT6XZ10szQbg6U9BTh-1" parent="iqIT6XZ10szQbg6U9BTh-0" />
        <mxCell id="AScczjiX9h1AEKxqOiIk-0" value="" style="rounded=0;whiteSpace=wrap;html=1;" vertex="1" parent="iqIT6XZ10szQbg6U9BTh-1">
          <mxGeometry x="60" y="90" width="480" height="470" as="geometry" />
        </mxCell>
        <mxCell id="38Z6AdPBHmPQmlIbEbNH-0" value="" style="line;strokeWidth=1;html=1;" vertex="1" parent="iqIT6XZ10szQbg6U9BTh-1">
          <mxGeometry x="60" y="100" width="480" height="90" as="geometry" />
        </mxCell>
        <mxCell id="38Z6AdPBHmPQmlIbEbNH-1" value="" style="line;strokeWidth=1;html=1;" vertex="1" parent="iqIT6XZ10szQbg6U9BTh-1">
          <mxGeometry x="60" y="160" width="480" height="90" as="geometry" />
        </mxCell>
        <mxCell id="ymcB6cvqAClakg21ieHs-0" value="" style="line;strokeWidth=1;html=1;" vertex="1" parent="iqIT6XZ10szQbg6U9BTh-1">
          <mxGeometry x="60" y="220" width="360" height="90" as="geometry" />
        </mxCell>
        <mxCell id="ymcB6cvqAClakg21ieHs-1" value="&lt;span style=&quot;font-size: 18px&quot;&gt;登录&lt;/span&gt;" style="text;html=1;strokeColor=none;fillColor=none;align=center;verticalAlign=middle;whiteSpace=wrap;rounded=0;" vertex="1" parent="iqIT6XZ10szQbg6U9BTh-1">
          <mxGeometry x="280" y="110" width="40" height="20" as="geometry" />
        </mxCell>
        <mxCell id="ymcB6cvqAClakg21ieHs-2" value="&lt;span style=&quot;font-size: 18px&quot;&gt;登录成功？&lt;/span&gt;" style="text;html=1;strokeColor=none;fillColor=none;align=center;verticalAlign=middle;whiteSpace=wrap;rounded=0;" vertex="1" parent="iqIT6XZ10szQbg6U9BTh-1">
          <mxGeometry x="350" y="160" width="100" height="20" as="geometry" />
        </mxCell>
        <mxCell id="ymcB6cvqAClakg21ieHs-4" value="" style="endArrow=none;html=1;entryX=0.002;entryY=0.168;entryDx=0;entryDy=0;entryPerimeter=0;exitX=0.75;exitY=0.5;exitDx=0;exitDy=0;exitPerimeter=0;" edge="1" parent="iqIT6XZ10szQbg6U9BTh-1" source="38Z6AdPBHmPQmlIbEbNH-1" target="AScczjiX9h1AEKxqOiIk-0">
          <mxGeometry width="50" height="50" relative="1" as="geometry">
            <mxPoint x="280" y="290" as="sourcePoint" />
            <mxPoint x="330" y="240" as="targetPoint" />
          </mxGeometry>
        </mxCell>
        <mxCell id="ymcB6cvqAClakg21ieHs-5" value="" style="endArrow=none;html=1;entryX=1;entryY=0.5;entryDx=0;entryDy=0;entryPerimeter=0;exitX=0.75;exitY=0.5;exitDx=0;exitDy=0;exitPerimeter=0;" edge="1" parent="iqIT6XZ10szQbg6U9BTh-1" source="38Z6AdPBHmPQmlIbEbNH-1" target="38Z6AdPBHmPQmlIbEbNH-0">
          <mxGeometry width="50" height="50" relative="1" as="geometry">
            <mxPoint x="430" y="215" as="sourcePoint" />
            <mxPoint x="70.96000000000004" y="155.44000000000005" as="targetPoint" />
          </mxGeometry>
        </mxCell>
        <mxCell id="ymcB6cvqAClakg21ieHs-6" value="&lt;span style=&quot;font-size: 18px&quot;&gt;Y&lt;/span&gt;" style="text;html=1;strokeColor=none;fillColor=none;align=center;verticalAlign=middle;whiteSpace=wrap;rounded=0;" vertex="1" parent="iqIT6XZ10szQbg6U9BTh-1">
          <mxGeometry x="60" y="180" width="60" height="20" as="geometry" />
        </mxCell>
        <mxCell id="ymcB6cvqAClakg21ieHs-7" value="&lt;span style=&quot;font-size: 18px&quot;&gt;N&lt;/span&gt;" style="text;html=1;strokeColor=none;fillColor=none;align=center;verticalAlign=middle;whiteSpace=wrap;rounded=0;" vertex="1" parent="iqIT6XZ10szQbg6U9BTh-1">
          <mxGeometry x="460" y="170" width="100" height="20" as="geometry" />
        </mxCell>
        <mxCell id="ymcB6cvqAClakg21ieHs-9" value="" style="line;strokeWidth=1;html=1;" vertex="1" parent="iqIT6XZ10szQbg6U9BTh-1">
          <mxGeometry x="60" y="330" width="360" height="90" as="geometry" />
        </mxCell>
        <mxCell id="ymcB6cvqAClakg21ieHs-11" value="" style="endArrow=none;html=1;entryX=0.75;entryY=0.5;entryDx=0;entryDy=0;entryPerimeter=0;exitX=0.75;exitY=0.5;exitDx=0;exitDy=0;exitPerimeter=0;" edge="1" parent="iqIT6XZ10szQbg6U9BTh-1" source="ymcB6cvqAClakg21ieHs-24" target="38Z6AdPBHmPQmlIbEbNH-1">
          <mxGeometry width="50" height="50" relative="1" as="geometry">
            <mxPoint x="280" y="290" as="sourcePoint" />
            <mxPoint x="330" y="240" as="targetPoint" />
          </mxGeometry>
        </mxCell>
        <mxCell id="ymcB6cvqAClakg21ieHs-13" value="" style="endArrow=none;html=1;entryX=0.75;entryY=0.5;entryDx=0;entryDy=0;entryPerimeter=0;exitX=0.651;exitY=0.489;exitDx=0;exitDy=0;exitPerimeter=0;" edge="1" parent="iqIT6XZ10szQbg6U9BTh-1" source="ymcB6cvqAClakg21ieHs-0" target="38Z6AdPBHmPQmlIbEbNH-1">
          <mxGeometry width="50" height="50" relative="1" as="geometry">
            <mxPoint x="280" y="290" as="sourcePoint" />
            <mxPoint x="420" y="210" as="targetPoint" />
          </mxGeometry>
        </mxCell>
        <mxCell id="ymcB6cvqAClakg21ieHs-14" value="" style="endArrow=none;html=1;entryX=0;entryY=0.5;entryDx=0;entryDy=0;entryPerimeter=0;exitX=0.356;exitY=0.498;exitDx=0;exitDy=0;exitPerimeter=0;" edge="1" parent="iqIT6XZ10szQbg6U9BTh-1" source="ymcB6cvqAClakg21ieHs-0" target="38Z6AdPBHmPQmlIbEbNH-1">
          <mxGeometry width="50" height="50" relative="1" as="geometry">
            <mxPoint x="304.36" y="274.01" as="sourcePoint" />
            <mxPoint x="430" y="215" as="targetPoint" />
          </mxGeometry>
        </mxCell>
        <mxCell id="ymcB6cvqAClakg21ieHs-15" value="&lt;span style=&quot;font-size: 18px&quot;&gt;选择“我的”&lt;/span&gt;" style="text;html=1;strokeColor=none;fillColor=none;align=center;verticalAlign=middle;whiteSpace=wrap;rounded=0;" vertex="1" parent="iqIT6XZ10szQbg6U9BTh-1">
          <mxGeometry x="190" y="230" width="100" height="20" as="geometry" />
        </mxCell>
        <mxCell id="ymcB6cvqAClakg21ieHs-16" value="" style="line;strokeWidth=1;html=1;" vertex="1" parent="iqIT6XZ10szQbg6U9BTh-1">
          <mxGeometry x="60" y="270" width="360" height="90" as="geometry" />
        </mxCell>
        <mxCell id="ymcB6cvqAClakg21ieHs-18" value="&lt;span style=&quot;font-size: 18px&quot;&gt;编辑信息&lt;/span&gt;" style="text;html=1;strokeColor=none;fillColor=none;align=center;verticalAlign=middle;whiteSpace=wrap;rounded=0;" vertex="1" parent="iqIT6XZ10szQbg6U9BTh-1">
          <mxGeometry x="190" y="280" width="100" height="20" as="geometry" />
        </mxCell>
        <mxCell id="ymcB6cvqAClakg21ieHs-19" value="" style="endArrow=none;html=1;entryX=0.003;entryY=0.374;entryDx=0;entryDy=0;entryPerimeter=0;exitX=0.378;exitY=0.493;exitDx=0;exitDy=0;exitPerimeter=0;" edge="1" parent="iqIT6XZ10szQbg6U9BTh-1" source="ymcB6cvqAClakg21ieHs-16" target="AScczjiX9h1AEKxqOiIk-0">
          <mxGeometry width="50" height="50" relative="1" as="geometry">
            <mxPoint x="190" y="310" as="sourcePoint" />
            <mxPoint x="70" y="260.09000000000003" as="targetPoint" />
          </mxGeometry>
        </mxCell>
        <mxCell id="ymcB6cvqAClakg21ieHs-20" value="" style="endArrow=none;html=1;exitX=0.704;exitY=0.484;exitDx=0;exitDy=0;exitPerimeter=0;" edge="1" parent="iqIT6XZ10szQbg6U9BTh-1" source="ymcB6cvqAClakg21ieHs-16">
          <mxGeometry width="50" height="50" relative="1" as="geometry">
            <mxPoint x="206.08000000000004" y="324.37" as="sourcePoint" />
            <mxPoint x="420" y="270" as="targetPoint" />
            <Array as="points" />
          </mxGeometry>
        </mxCell>
        <mxCell id="ymcB6cvqAClakg21ieHs-22" value="" style="endArrow=none;html=1;exitX=0.512;exitY=0.484;exitDx=0;exitDy=0;exitPerimeter=0;" edge="1" parent="iqIT6XZ10szQbg6U9BTh-1" source="ymcB6cvqAClakg21ieHs-24">
          <mxGeometry width="50" height="50" relative="1" as="geometry">
            <mxPoint x="280" y="290" as="sourcePoint" />
            <mxPoint x="306" y="313" as="targetPoint" />
          </mxGeometry>
        </mxCell>
        <mxCell id="ymcB6cvqAClakg21ieHs-23" value="" style="line;strokeWidth=1;html=1;" vertex="1" parent="iqIT6XZ10szQbg6U9BTh-1">
          <mxGeometry x="60" y="390" width="360" height="90" as="geometry" />
        </mxCell>
        <mxCell id="ymcB6cvqAClakg21ieHs-24" value="" style="line;strokeWidth=1;html=1;" vertex="1" parent="iqIT6XZ10szQbg6U9BTh-1">
          <mxGeometry x="60" y="450" width="480" height="90" as="geometry" />
        </mxCell>
        <mxCell id="ymcB6cvqAClakg21ieHs-26" value="" style="endArrow=none;html=1;" edge="1" parent="iqIT6XZ10szQbg6U9BTh-1">
          <mxGeometry width="50" height="50" relative="1" as="geometry">
            <mxPoint x="180" y="315" as="sourcePoint" />
            <mxPoint x="180" y="495" as="targetPoint" />
          </mxGeometry>
        </mxCell>
        <mxCell id="ymcB6cvqAClakg21ieHs-27" value="&lt;span style=&quot;font-size: 18px&quot;&gt;修改用户头像&lt;/span&gt;" style="text;html=1;strokeColor=none;fillColor=none;align=center;verticalAlign=middle;whiteSpace=wrap;rounded=0;" vertex="1" parent="iqIT6XZ10szQbg6U9BTh-1">
          <mxGeometry x="70" y="340" width="110" height="20" as="geometry" />
        </mxCell>
        <mxCell id="ymcB6cvqAClakg21ieHs-28" value="&lt;span style=&quot;font-size: 18px&quot;&gt;修改用户昵称&lt;br&gt;&lt;/span&gt;" style="text;html=1;strokeColor=none;fillColor=none;align=center;verticalAlign=middle;whiteSpace=wrap;rounded=0;" vertex="1" parent="iqIT6XZ10szQbg6U9BTh-1">
          <mxGeometry x="190" y="340" width="110" height="20" as="geometry" />
        </mxCell>
        <mxCell id="ymcB6cvqAClakg21ieHs-29" value="&lt;span style=&quot;font-size: 18px&quot;&gt;修改用户简介&lt;/span&gt;" style="text;html=1;strokeColor=none;fillColor=none;align=center;verticalAlign=middle;whiteSpace=wrap;rounded=0;" vertex="1" parent="iqIT6XZ10szQbg6U9BTh-1">
          <mxGeometry x="310" y="340" width="110" height="20" as="geometry" />
        </mxCell>
        <mxCell id="ymcB6cvqAClakg21ieHs-32" value="&lt;font style=&quot;font-size: 14px&quot;&gt;修改成功？&lt;/font&gt;" style="text;html=1;strokeColor=none;fillColor=none;align=center;verticalAlign=middle;whiteSpace=wrap;rounded=0;" vertex="1" parent="iqIT6XZ10szQbg6U9BTh-1">
          <mxGeometry x="70" y="380" width="110" height="20" as="geometry" />
        </mxCell>
        <mxCell id="ymcB6cvqAClakg21ieHs-33" value="" style="endArrow=none;html=1;" edge="1" parent="iqIT6XZ10szQbg6U9BTh-1">
          <mxGeometry width="50" height="50" relative="1" as="geometry">
            <mxPoint x="120" y="434" as="sourcePoint" />
            <mxPoint x="180" y="375" as="targetPoint" />
          </mxGeometry>
        </mxCell>
        <mxCell id="ymcB6cvqAClakg21ieHs-34" value="" style="endArrow=none;html=1;entryX=0;entryY=0.5;entryDx=0;entryDy=0;entryPerimeter=0;exitX=0.16;exitY=0.502;exitDx=0;exitDy=0;exitPerimeter=0;" edge="1" parent="iqIT6XZ10szQbg6U9BTh-1" source="ymcB6cvqAClakg21ieHs-23" target="ymcB6cvqAClakg21ieHs-9">
          <mxGeometry width="50" height="50" relative="1" as="geometry">
            <mxPoint x="120" y="432" as="sourcePoint" />
            <mxPoint x="190" y="385" as="targetPoint" />
          </mxGeometry>
        </mxCell>
        <mxCell id="ymcB6cvqAClakg21ieHs-35" style="edgeStyle=orthogonalEdgeStyle;rounded=0;orthogonalLoop=1;jettySize=auto;html=1;exitX=0.5;exitY=1;exitDx=0;exitDy=0;" edge="1" parent="iqIT6XZ10szQbg6U9BTh-1" source="ymcB6cvqAClakg21ieHs-32" target="ymcB6cvqAClakg21ieHs-32">
          <mxGeometry relative="1" as="geometry" />
        </mxCell>
        <mxCell id="ymcB6cvqAClakg21ieHs-37" value="" style="endArrow=none;html=1;exitX=0.52;exitY=0.502;exitDx=0;exitDy=0;exitPerimeter=0;entryX=0.678;entryY=0.493;entryDx=0;entryDy=0;entryPerimeter=0;" edge="1" parent="iqIT6XZ10szQbg6U9BTh-1" source="ymcB6cvqAClakg21ieHs-23" target="ymcB6cvqAClakg21ieHs-9">
          <mxGeometry width="50" height="50" relative="1" as="geometry">
            <mxPoint x="280" y="370" as="sourcePoint" />
            <mxPoint x="310" y="380" as="targetPoint" />
          </mxGeometry>
        </mxCell>
        <mxCell id="ymcB6cvqAClakg21ieHs-38" value="" style="endArrow=none;html=1;exitX=0.518;exitY=0.493;exitDx=0;exitDy=0;exitPerimeter=0;" edge="1" parent="iqIT6XZ10szQbg6U9BTh-1" source="ymcB6cvqAClakg21ieHs-23">
          <mxGeometry width="50" height="50" relative="1" as="geometry">
            <mxPoint x="261.15999999999997" y="445.99" as="sourcePoint" />
            <mxPoint x="180" y="380" as="targetPoint" />
          </mxGeometry>
        </mxCell>
        <mxCell id="ymcB6cvqAClakg21ieHs-39" value="" style="endArrow=none;html=1;exitX=0.842;exitY=0.52;exitDx=0;exitDy=0;exitPerimeter=0;entryX=0.678;entryY=0.476;entryDx=0;entryDy=0;entryPerimeter=0;" edge="1" parent="iqIT6XZ10szQbg6U9BTh-1" source="ymcB6cvqAClakg21ieHs-23" target="ymcB6cvqAClakg21ieHs-9">
          <mxGeometry width="50" height="50" relative="1" as="geometry">
            <mxPoint x="256.48" y="444.37" as="sourcePoint" />
            <mxPoint x="310" y="380" as="targetPoint" />
          </mxGeometry>
        </mxCell>
        <mxCell id="ymcB6cvqAClakg21ieHs-40" value="" style="endArrow=none;html=1;exitX=0.842;exitY=0.52;exitDx=0;exitDy=0;exitPerimeter=0;" edge="1" parent="iqIT6XZ10szQbg6U9BTh-1" source="ymcB6cvqAClakg21ieHs-23">
          <mxGeometry width="50" height="50" relative="1" as="geometry">
            <mxPoint x="373.12" y="446.79999999999995" as="sourcePoint" />
            <mxPoint x="420" y="380" as="targetPoint" />
          </mxGeometry>
        </mxCell>
        <mxCell id="ymcB6cvqAClakg21ieHs-41" value="&lt;font style=&quot;font-size: 14px&quot;&gt;修改成功？&lt;/font&gt;" style="text;html=1;strokeColor=none;fillColor=none;align=center;verticalAlign=middle;whiteSpace=wrap;rounded=0;" vertex="1" parent="iqIT6XZ10szQbg6U9BTh-1">
          <mxGeometry x="190" y="380" width="110" height="20" as="geometry" />
        </mxCell>
        <mxCell id="ymcB6cvqAClakg21ieHs-42" value="&lt;font style=&quot;font-size: 14px&quot;&gt;修改成功？&lt;/font&gt;" style="text;html=1;strokeColor=none;fillColor=none;align=center;verticalAlign=middle;whiteSpace=wrap;rounded=0;" vertex="1" parent="iqIT6XZ10szQbg6U9BTh-1">
          <mxGeometry x="310" y="380" width="110" height="20" as="geometry" />
        </mxCell>
        <mxCell id="ymcB6cvqAClakg21ieHs-44" value="" style="endArrow=none;html=1;entryX=0.162;entryY=0.511;entryDx=0;entryDy=0;entryPerimeter=0;exitX=0.123;exitY=0.511;exitDx=0;exitDy=0;exitPerimeter=0;" edge="1" parent="iqIT6XZ10szQbg6U9BTh-1" source="ymcB6cvqAClakg21ieHs-24" target="ymcB6cvqAClakg21ieHs-23">
          <mxGeometry width="50" height="50" relative="1" as="geometry">
            <mxPoint x="280" y="370" as="sourcePoint" />
            <mxPoint x="330" y="320" as="targetPoint" />
          </mxGeometry>
        </mxCell>
        <mxCell id="ymcB6cvqAClakg21ieHs-46" value="" style="endArrow=none;html=1;entryX=0.518;entryY=0.511;entryDx=0;entryDy=0;entryPerimeter=0;exitX=0.388;exitY=0.502;exitDx=0;exitDy=0;exitPerimeter=0;" edge="1" parent="iqIT6XZ10szQbg6U9BTh-1" source="ymcB6cvqAClakg21ieHs-24" target="ymcB6cvqAClakg21ieHs-23">
          <mxGeometry width="50" height="50" relative="1" as="geometry">
            <mxPoint x="280" y="370" as="sourcePoint" />
            <mxPoint x="330" y="320" as="targetPoint" />
          </mxGeometry>
        </mxCell>
        <mxCell id="ymcB6cvqAClakg21ieHs-48" value="" style="endArrow=none;html=1;entryX=0.842;entryY=0.502;entryDx=0;entryDy=0;entryPerimeter=0;exitX=0.632;exitY=0.493;exitDx=0;exitDy=0;exitPerimeter=0;" edge="1" parent="iqIT6XZ10szQbg6U9BTh-1" source="ymcB6cvqAClakg21ieHs-24" target="ymcB6cvqAClakg21ieHs-23">
          <mxGeometry width="50" height="50" relative="1" as="geometry">
            <mxPoint x="280" y="370" as="sourcePoint" />
            <mxPoint x="330" y="320" as="targetPoint" />
          </mxGeometry>
        </mxCell>
        <mxCell id="ymcB6cvqAClakg21ieHs-49" value="&lt;font style=&quot;font-size: 14px&quot;&gt;Y&lt;/font&gt;" style="text;html=1;strokeColor=none;fillColor=none;align=center;verticalAlign=middle;whiteSpace=wrap;rounded=0;" vertex="1" parent="iqIT6XZ10szQbg6U9BTh-1">
          <mxGeometry x="70" y="410" width="20" height="20" as="geometry" />
        </mxCell>
        <mxCell id="ymcB6cvqAClakg21ieHs-50" value="&lt;font style=&quot;font-size: 14px&quot;&gt;Y&lt;/font&gt;" style="text;html=1;strokeColor=none;fillColor=none;align=center;verticalAlign=middle;whiteSpace=wrap;rounded=0;" vertex="1" parent="iqIT6XZ10szQbg6U9BTh-1">
          <mxGeometry x="190" y="410" width="20" height="20" as="geometry" />
        </mxCell>
        <mxCell id="ymcB6cvqAClakg21ieHs-51" value="&lt;font style=&quot;font-size: 14px&quot;&gt;Y&lt;/font&gt;" style="text;html=1;strokeColor=none;fillColor=none;align=center;verticalAlign=middle;whiteSpace=wrap;rounded=0;" vertex="1" parent="iqIT6XZ10szQbg6U9BTh-1">
          <mxGeometry x="310" y="410" width="20" height="20" as="geometry" />
        </mxCell>
        <mxCell id="ymcB6cvqAClakg21ieHs-52" value="&lt;font style=&quot;font-size: 14px&quot;&gt;N&lt;/font&gt;" style="text;html=1;strokeColor=none;fillColor=none;align=center;verticalAlign=middle;whiteSpace=wrap;rounded=0;" vertex="1" parent="iqIT6XZ10szQbg6U9BTh-1">
          <mxGeometry x="390" y="410" width="20" height="20" as="geometry" />
        </mxCell>
        <mxCell id="ymcB6cvqAClakg21ieHs-53" value="&lt;font style=&quot;font-size: 14px&quot;&gt;N&lt;/font&gt;" style="text;html=1;strokeColor=none;fillColor=none;align=center;verticalAlign=middle;whiteSpace=wrap;rounded=0;" vertex="1" parent="iqIT6XZ10szQbg6U9BTh-1">
          <mxGeometry x="280" y="410" width="20" height="20" as="geometry" />
        </mxCell>
        <mxCell id="ymcB6cvqAClakg21ieHs-54" value="&lt;font style=&quot;font-size: 14px&quot;&gt;N&lt;/font&gt;" style="text;html=1;strokeColor=none;fillColor=none;align=center;verticalAlign=middle;whiteSpace=wrap;rounded=0;" vertex="1" parent="iqIT6XZ10szQbg6U9BTh-1">
          <mxGeometry x="150" y="410" width="20" height="20" as="geometry" />
        </mxCell>
        <mxCell id="ymcB6cvqAClakg21ieHs-55" value="&lt;font style=&quot;font-size: 6px&quot;&gt;SUCCESS&lt;/font&gt;" style="text;html=1;strokeColor=none;fillColor=none;align=center;verticalAlign=middle;whiteSpace=wrap;rounded=0;" vertex="1" parent="iqIT6XZ10szQbg6U9BTh-1">
          <mxGeometry x="80" y="460" width="20" height="20" as="geometry" />
        </mxCell>
        <mxCell id="ymcB6cvqAClakg21ieHs-59" value="&lt;font style=&quot;font-size: 6px&quot;&gt;SUCCESS&lt;/font&gt;" style="text;html=1;strokeColor=none;fillColor=none;align=center;verticalAlign=middle;whiteSpace=wrap;rounded=0;" vertex="1" parent="iqIT6XZ10szQbg6U9BTh-1">
          <mxGeometry x="200" y="460" width="20" height="20" as="geometry" />
        </mxCell>
        <mxCell id="ymcB6cvqAClakg21ieHs-60" value="&lt;font style=&quot;font-size: 6px&quot;&gt;SUCCESS&lt;/font&gt;" style="text;html=1;strokeColor=none;fillColor=none;align=center;verticalAlign=middle;whiteSpace=wrap;rounded=0;" vertex="1" parent="iqIT6XZ10szQbg6U9BTh-1">
          <mxGeometry x="310" y="460" width="50" height="20" as="geometry" />
        </mxCell>
        <mxCell id="ymcB6cvqAClakg21ieHs-61" value="&lt;font style=&quot;font-size: 6px&quot;&gt;ERROR&lt;/font&gt;" style="text;html=1;strokeColor=none;fillColor=none;align=center;verticalAlign=middle;whiteSpace=wrap;rounded=0;" vertex="1" parent="iqIT6XZ10szQbg6U9BTh-1">
          <mxGeometry x="364" y="460" width="50" height="20" as="geometry" />
        </mxCell>
        <mxCell id="ymcB6cvqAClakg21ieHs-63" value="&lt;font style=&quot;font-size: 6px&quot;&gt;ERROR&lt;/font&gt;" style="text;html=1;strokeColor=none;fillColor=none;align=center;verticalAlign=middle;whiteSpace=wrap;rounded=0;" vertex="1" parent="iqIT6XZ10szQbg6U9BTh-1">
          <mxGeometry x="250" y="460" width="50" height="20" as="geometry" />
        </mxCell>
        <mxCell id="ymcB6cvqAClakg21ieHs-64" value="&lt;font style=&quot;font-size: 6px&quot;&gt;ERROR&lt;/font&gt;" style="text;html=1;strokeColor=none;fillColor=none;align=center;verticalAlign=middle;whiteSpace=wrap;rounded=0;" vertex="1" parent="iqIT6XZ10szQbg6U9BTh-1">
          <mxGeometry x="120" y="460" width="50" height="20" as="geometry" />
        </mxCell>
        <mxCell id="ymcB6cvqAClakg21ieHs-65" value="&lt;font style=&quot;font-size: 18px&quot;&gt;更新用户信息&lt;/font&gt;" style="text;html=1;strokeColor=none;fillColor=none;align=center;verticalAlign=middle;whiteSpace=wrap;rounded=0;" vertex="1" parent="iqIT6XZ10szQbg6U9BTh-1">
          <mxGeometry x="240" y="520" width="130" height="20" as="geometry" />
        </mxCell>
        <mxCell id="ymcB6cvqAClakg21ieHs-66" value="&lt;font style=&quot;font-size: 18px&quot;&gt;返回首页模块&lt;/font&gt;" style="text;html=1;strokeColor=none;fillColor=none;align=center;verticalAlign=middle;whiteSpace=wrap;rounded=0;" vertex="1" parent="iqIT6XZ10szQbg6U9BTh-1">
          <mxGeometry x="414" y="340" width="130" height="20" as="geometry" />
        </mxCell>
      </root>
    </mxGraphModel>
  </diagram>
  <diagram id="em8Vnph4erqBkrHlEtQt" name="Page-4">
    <mxGraphModel dx="678" dy="509" grid="1" gridSize="10" guides="1" tooltips="1" connect="1" arrows="1" fold="1" page="1" pageScale="1" pageWidth="827" pageHeight="1169" math="0" shadow="0">
      <root>
        <mxCell id="v0WtC_rdFgd49A6Mksid-0" />
        <mxCell id="v0WtC_rdFgd49A6Mksid-1" parent="v0WtC_rdFgd49A6Mksid-0" />
        <mxCell id="v0WtC_rdFgd49A6Mksid-2" value="" style="rounded=0;whiteSpace=wrap;html=1;" vertex="1" parent="v0WtC_rdFgd49A6Mksid-1">
          <mxGeometry x="30" y="80" width="600" height="410" as="geometry" />
        </mxCell>
        <mxCell id="v0WtC_rdFgd49A6Mksid-6" value="" style="line;strokeWidth=2;html=1;" vertex="1" parent="v0WtC_rdFgd49A6Mksid-1">
          <mxGeometry x="30" y="140" width="600" height="10" as="geometry" />
        </mxCell>
        <mxCell id="v0WtC_rdFgd49A6Mksid-7" value="" style="endArrow=none;html=1;entryX=0;entryY=0;entryDx=0;entryDy=0;exitX=0.783;exitY=0.48;exitDx=0;exitDy=0;exitPerimeter=0;" edge="1" parent="v0WtC_rdFgd49A6Mksid-1" source="v0WtC_rdFgd49A6Mksid-6" target="v0WtC_rdFgd49A6Mksid-2">
          <mxGeometry width="50" height="50" relative="1" as="geometry">
            <mxPoint x="320" y="290" as="sourcePoint" />
            <mxPoint x="370" y="240" as="targetPoint" />
          </mxGeometry>
        </mxCell>
        <mxCell id="v0WtC_rdFgd49A6Mksid-8" value="" style="endArrow=none;html=1;entryX=1;entryY=0;entryDx=0;entryDy=0;" edge="1" parent="v0WtC_rdFgd49A6Mksid-1" target="v0WtC_rdFgd49A6Mksid-2">
          <mxGeometry width="50" height="50" relative="1" as="geometry">
            <mxPoint x="500" y="145" as="sourcePoint" />
            <mxPoint x="370" y="240" as="targetPoint" />
          </mxGeometry>
        </mxCell>
        <mxCell id="v0WtC_rdFgd49A6Mksid-9" value="登录成功？" style="text;html=1;strokeColor=none;fillColor=none;align=center;verticalAlign=middle;whiteSpace=wrap;rounded=0;" vertex="1" parent="v0WtC_rdFgd49A6Mksid-1">
          <mxGeometry x="420" y="90" width="80" height="20" as="geometry" />
        </mxCell>
        <mxCell id="v0WtC_rdFgd49A6Mksid-10" value="Y" style="text;html=1;strokeColor=none;fillColor=none;align=center;verticalAlign=middle;whiteSpace=wrap;rounded=0;" vertex="1" parent="v0WtC_rdFgd49A6Mksid-1">
          <mxGeometry x="60" y="110" width="40" height="20" as="geometry" />
        </mxCell>
        <mxCell id="v0WtC_rdFgd49A6Mksid-11" value="N" style="text;html=1;strokeColor=none;fillColor=none;align=center;verticalAlign=middle;whiteSpace=wrap;rounded=0;" vertex="1" parent="v0WtC_rdFgd49A6Mksid-1">
          <mxGeometry x="580" y="110" width="40" height="20" as="geometry" />
        </mxCell>
        <mxCell id="v0WtC_rdFgd49A6Mksid-12" value="" style="line;strokeWidth=2;html=1;" vertex="1" parent="v0WtC_rdFgd49A6Mksid-1">
          <mxGeometry x="30" y="200" width="470" height="10" as="geometry" />
        </mxCell>
        <mxCell id="v0WtC_rdFgd49A6Mksid-13" value="" style="line;strokeWidth=2;html=1;" vertex="1" parent="v0WtC_rdFgd49A6Mksid-1">
          <mxGeometry x="30" y="250" width="470" height="10" as="geometry" />
        </mxCell>
        <mxCell id="v0WtC_rdFgd49A6Mksid-14" value="" style="line;strokeWidth=2;html=1;" vertex="1" parent="v0WtC_rdFgd49A6Mksid-1">
          <mxGeometry x="30" y="310" width="470" height="10" as="geometry" />
        </mxCell>
        <mxCell id="v0WtC_rdFgd49A6Mksid-15" value="" style="line;strokeWidth=2;html=1;" vertex="1" parent="v0WtC_rdFgd49A6Mksid-1">
          <mxGeometry x="30" y="370" width="470" height="10" as="geometry" />
        </mxCell>
        <mxCell id="v0WtC_rdFgd49A6Mksid-18" value="" style="endArrow=none;html=1;entryX=0.787;entryY=0.56;entryDx=0;entryDy=0;entryPerimeter=0;" edge="1" parent="v0WtC_rdFgd49A6Mksid-1" target="v0WtC_rdFgd49A6Mksid-6">
          <mxGeometry width="50" height="50" relative="1" as="geometry">
            <mxPoint x="500" y="490" as="sourcePoint" />
            <mxPoint x="370" y="240" as="targetPoint" />
          </mxGeometry>
        </mxCell>
        <mxCell id="v0WtC_rdFgd49A6Mksid-19" value="" style="endArrow=none;html=1;entryX=0.785;entryY=0.48;entryDx=0;entryDy=0;entryPerimeter=0;exitX=0.694;exitY=0.4;exitDx=0;exitDy=0;exitPerimeter=0;" edge="1" parent="v0WtC_rdFgd49A6Mksid-1" source="v0WtC_rdFgd49A6Mksid-12" target="v0WtC_rdFgd49A6Mksid-6">
          <mxGeometry width="50" height="50" relative="1" as="geometry">
            <mxPoint x="320" y="290" as="sourcePoint" />
            <mxPoint x="370" y="240" as="targetPoint" />
          </mxGeometry>
        </mxCell>
        <mxCell id="v0WtC_rdFgd49A6Mksid-21" value="" style="endArrow=none;html=1;entryX=0;entryY=0.5;entryDx=0;entryDy=0;entryPerimeter=0;exitX=0.352;exitY=0.4;exitDx=0;exitDy=0;exitPerimeter=0;" edge="1" parent="v0WtC_rdFgd49A6Mksid-1" source="v0WtC_rdFgd49A6Mksid-12" target="v0WtC_rdFgd49A6Mksid-6">
          <mxGeometry width="50" height="50" relative="1" as="geometry">
            <mxPoint x="320" y="290" as="sourcePoint" />
            <mxPoint x="370" y="240" as="targetPoint" />
          </mxGeometry>
        </mxCell>
        <mxCell id="v0WtC_rdFgd49A6Mksid-22" value="选择操作" style="text;html=1;strokeColor=none;fillColor=none;align=center;verticalAlign=middle;whiteSpace=wrap;rounded=0;" vertex="1" parent="v0WtC_rdFgd49A6Mksid-1">
          <mxGeometry x="230" y="160" width="80" height="20" as="geometry" />
        </mxCell>
        <mxCell id="rzHVvmw4vxY7hfCkE267-0" value="浏览动态" style="text;html=1;strokeColor=none;fillColor=none;align=center;verticalAlign=middle;whiteSpace=wrap;rounded=0;" vertex="1" parent="v0WtC_rdFgd49A6Mksid-1">
          <mxGeometry x="180" y="220" width="80" height="20" as="geometry" />
        </mxCell>
        <mxCell id="rzHVvmw4vxY7hfCkE267-1" value="发布动态" style="text;html=1;strokeColor=none;fillColor=none;align=center;verticalAlign=middle;whiteSpace=wrap;rounded=0;" vertex="1" parent="v0WtC_rdFgd49A6Mksid-1">
          <mxGeometry x="390" y="220" width="80" height="20" as="geometry" />
        </mxCell>
        <mxCell id="rzHVvmw4vxY7hfCkE267-5" value="" style="line;strokeWidth=2;html=1;" vertex="1" parent="v0WtC_rdFgd49A6Mksid-1">
          <mxGeometry x="30" y="430" width="470" height="10" as="geometry" />
        </mxCell>
        <mxCell id="rzHVvmw4vxY7hfCkE267-6" value="" style="endArrow=none;html=1;entryX=0.228;entryY=0.52;entryDx=0;entryDy=0;entryPerimeter=0;exitX=0.228;exitY=0.68;exitDx=0;exitDy=0;exitPerimeter=0;" edge="1" parent="v0WtC_rdFgd49A6Mksid-1" source="rzHVvmw4vxY7hfCkE267-5" target="v0WtC_rdFgd49A6Mksid-13">
          <mxGeometry width="50" height="50" relative="1" as="geometry">
            <mxPoint x="137" y="430" as="sourcePoint" />
            <mxPoint x="370" y="240" as="targetPoint" />
          </mxGeometry>
        </mxCell>
        <mxCell id="xhXUfuUHp8RXoSItfJEG-1" value="" style="endArrow=none;html=1;entryX=0.734;entryY=0.4;entryDx=0;entryDy=0;entryPerimeter=0;exitX=0.734;exitY=1;exitDx=0;exitDy=0;exitPerimeter=0;" edge="1" parent="v0WtC_rdFgd49A6Mksid-1" source="rzHVvmw4vxY7hfCkE267-5" target="v0WtC_rdFgd49A6Mksid-12">
          <mxGeometry width="50" height="50" relative="1" as="geometry">
            <mxPoint x="375" y="430" as="sourcePoint" />
            <mxPoint x="370" y="240" as="targetPoint" />
          </mxGeometry>
        </mxCell>
        <mxCell id="xhXUfuUHp8RXoSItfJEG-2" value="&lt;font style=&quot;font-size: 8px&quot;&gt;点赞成功？&lt;/font&gt;" style="text;html=1;strokeColor=none;fillColor=none;align=center;verticalAlign=middle;whiteSpace=wrap;rounded=0;" vertex="1" parent="v0WtC_rdFgd49A6Mksid-1">
          <mxGeometry x="40" y="260" width="80" height="20" as="geometry" />
        </mxCell>
        <mxCell id="xhXUfuUHp8RXoSItfJEG-3" value="" style="endArrow=none;html=1;entryX=0;entryY=0.5;entryDx=0;entryDy=0;entryPerimeter=0;exitX=0.102;exitY=0.44;exitDx=0;exitDy=0;exitPerimeter=0;" edge="1" parent="v0WtC_rdFgd49A6Mksid-1" source="v0WtC_rdFgd49A6Mksid-14" target="v0WtC_rdFgd49A6Mksid-13">
          <mxGeometry width="50" height="50" relative="1" as="geometry">
            <mxPoint x="320" y="290" as="sourcePoint" />
            <mxPoint x="370" y="240" as="targetPoint" />
          </mxGeometry>
        </mxCell>
        <mxCell id="xhXUfuUHp8RXoSItfJEG-4" value="" style="endArrow=none;html=1;entryX=0.226;entryY=0.36;entryDx=0;entryDy=0;entryPerimeter=0;exitX=0.112;exitY=0.44;exitDx=0;exitDy=0;exitPerimeter=0;" edge="1" parent="v0WtC_rdFgd49A6Mksid-1" source="v0WtC_rdFgd49A6Mksid-14" target="v0WtC_rdFgd49A6Mksid-13">
          <mxGeometry width="50" height="50" relative="1" as="geometry">
            <mxPoint x="80" y="310" as="sourcePoint" />
            <mxPoint x="370" y="240" as="targetPoint" />
          </mxGeometry>
        </mxCell>
        <mxCell id="xhXUfuUHp8RXoSItfJEG-5" value="" style="endArrow=none;html=1;exitX=0.351;exitY=0.36;exitDx=0;exitDy=0;exitPerimeter=0;entryX=0.228;entryY=0.36;entryDx=0;entryDy=0;entryPerimeter=0;" edge="1" parent="v0WtC_rdFgd49A6Mksid-1" source="v0WtC_rdFgd49A6Mksid-14" target="v0WtC_rdFgd49A6Mksid-13">
          <mxGeometry width="50" height="50" relative="1" as="geometry">
            <mxPoint x="320" y="290" as="sourcePoint" />
            <mxPoint x="140" y="260" as="targetPoint" />
          </mxGeometry>
        </mxCell>
        <mxCell id="xhXUfuUHp8RXoSItfJEG-6" value="" style="endArrow=none;html=1;entryX=0.179;entryY=0.48;entryDx=0;entryDy=0;entryPerimeter=0;exitX=0.354;exitY=0.52;exitDx=0;exitDy=0;exitPerimeter=0;" edge="1" parent="v0WtC_rdFgd49A6Mksid-1" source="v0WtC_rdFgd49A6Mksid-14">
          <mxGeometry width="50" height="50" relative="1" as="geometry">
            <mxPoint x="200" y="300" as="sourcePoint" />
            <mxPoint x="245.20000000000005" y="256.015" as="targetPoint" />
          </mxGeometry>
        </mxCell>
        <mxCell id="xhXUfuUHp8RXoSItfJEG-7" value="" style="endArrow=none;html=1;exitX=0.594;exitY=0.52;exitDx=0;exitDy=0;exitPerimeter=0;entryX=0.735;entryY=0.52;entryDx=0;entryDy=0;entryPerimeter=0;" edge="1" parent="v0WtC_rdFgd49A6Mksid-1" source="v0WtC_rdFgd49A6Mksid-14" target="v0WtC_rdFgd49A6Mksid-13">
          <mxGeometry width="50" height="50" relative="1" as="geometry">
            <mxPoint x="206.38" y="325.20000000000005" as="sourcePoint" />
            <mxPoint x="380" y="260" as="targetPoint" />
          </mxGeometry>
        </mxCell>
        <mxCell id="xhXUfuUHp8RXoSItfJEG-8" value="" style="endArrow=none;html=1;exitX=0.594;exitY=0.52;exitDx=0;exitDy=0;exitPerimeter=0;entryX=0.735;entryY=0.52;entryDx=0;entryDy=0;entryPerimeter=0;" edge="1" parent="v0WtC_rdFgd49A6Mksid-1">
          <mxGeometry width="50" height="50" relative="1" as="geometry">
            <mxPoint x="433.7300000000001" y="315.00000000000006" as="sourcePoint" />
            <mxPoint x="500.00000000000006" y="255.00000000000006" as="targetPoint" />
          </mxGeometry>
        </mxCell>
        <mxCell id="xhXUfuUHp8RXoSItfJEG-9" value="" style="endArrow=none;html=1;entryX=0.734;entryY=0.68;entryDx=0;entryDy=0;entryPerimeter=0;exitX=0.863;exitY=0.6;exitDx=0;exitDy=0;exitPerimeter=0;" edge="1" parent="v0WtC_rdFgd49A6Mksid-1" source="v0WtC_rdFgd49A6Mksid-14" target="v0WtC_rdFgd49A6Mksid-13">
          <mxGeometry width="50" height="50" relative="1" as="geometry">
            <mxPoint x="430" y="310" as="sourcePoint" />
            <mxPoint x="510" y="265" as="targetPoint" />
          </mxGeometry>
        </mxCell>
        <mxCell id="xhXUfuUHp8RXoSItfJEG-10" value="" style="endArrow=none;html=1;entryX=0.182;entryY=0.64;entryDx=0;entryDy=0;entryPerimeter=0;exitX=0.863;exitY=0.6;exitDx=0;exitDy=0;exitPerimeter=0;" edge="1" parent="v0WtC_rdFgd49A6Mksid-1">
          <mxGeometry width="50" height="50" relative="1" as="geometry">
            <mxPoint x="310.0000000000001" y="314.6" as="sourcePoint" />
            <mxPoint x="243.60000000000002" y="256.87" as="targetPoint" />
          </mxGeometry>
        </mxCell>
        <mxCell id="xhXUfuUHp8RXoSItfJEG-11" value="&lt;font style=&quot;font-size: 8px&quot;&gt;收藏成功？&lt;/font&gt;&lt;span style=&quot;color: rgba(0 , 0 , 0 , 0) ; font-family: monospace ; font-size: 0px&quot;&gt;%3CmxGraphModel%3E%3Croot%3E%3CmxCell%20id%3D%220%22%2F%3E%3CmxCell%20id%3D%221%22%20parent%3D%220%22%2F%3E%3CmxCell%20id%3D%222%22%20value%3D%22%26lt%3Bfont%20style%3D%26quot%3Bfont-size%3A%208px%26quot%3B%26gt%3B%E7%82%B9%E8%B5%9E%E6%88%90%E5%8A%9F%EF%BC%9F%26lt%3B%2Ffont%26gt%3B%22%20style%3D%22text%3Bhtml%3D1%3BstrokeColor%3Dnone%3BfillColor%3Dnone%3Balign%3Dcenter%3BverticalAlign%3Dmiddle%3BwhiteSpace%3Dwrap%3Brounded%3D0%3B%22%20vertex%3D%221%22%20parent%3D%221%22%3E%3CmxGeometry%20x%3D%2240%22%20y%3D%22260%22%20width%3D%2280%22%20height%3D%2220%22%20as%3D%22geometry%22%2F%3E%3C%2FmxCell%3E%3C%2Froot%3E%3C%2FmxGraphModel%3E&lt;/span&gt;" style="text;html=1;strokeColor=none;fillColor=none;align=center;verticalAlign=middle;whiteSpace=wrap;rounded=0;" vertex="1" parent="v0WtC_rdFgd49A6Mksid-1">
          <mxGeometry x="160" y="260" width="80" height="20" as="geometry" />
        </mxCell>
        <mxCell id="xhXUfuUHp8RXoSItfJEG-12" value="&lt;font style=&quot;font-size: 8px&quot;&gt;评论/回复成功？&lt;/font&gt;" style="text;html=1;strokeColor=none;fillColor=none;align=center;verticalAlign=middle;whiteSpace=wrap;rounded=0;" vertex="1" parent="v0WtC_rdFgd49A6Mksid-1">
          <mxGeometry x="270" y="260" width="90" height="20" as="geometry" />
        </mxCell>
        <mxCell id="xhXUfuUHp8RXoSItfJEG-13" value="&lt;font style=&quot;font-size: 8px&quot;&gt;发布成功？&lt;/font&gt;" style="text;html=1;strokeColor=none;fillColor=none;align=center;verticalAlign=middle;whiteSpace=wrap;rounded=0;" vertex="1" parent="v0WtC_rdFgd49A6Mksid-1">
          <mxGeometry x="400" y="260" width="80" height="20" as="geometry" />
        </mxCell>
        <mxCell id="xhXUfuUHp8RXoSItfJEG-14" value="" style="endArrow=none;html=1;entryX=0.458;entryY=0.36;entryDx=0;entryDy=0;entryPerimeter=0;exitX=0.461;exitY=0.6;exitDx=0;exitDy=0;exitPerimeter=0;" edge="1" parent="v0WtC_rdFgd49A6Mksid-1" source="rzHVvmw4vxY7hfCkE267-5" target="v0WtC_rdFgd49A6Mksid-13">
          <mxGeometry width="50" height="50" relative="1" as="geometry">
            <mxPoint x="245" y="430" as="sourcePoint" />
            <mxPoint x="350" y="240" as="targetPoint" />
          </mxGeometry>
        </mxCell>
        <mxCell id="xhXUfuUHp8RXoSItfJEG-16" value="" style="endArrow=none;html=1;entryX=0.106;entryY=0.52;entryDx=0;entryDy=0;entryPerimeter=0;exitX=0.344;exitY=0.76;exitDx=0;exitDy=0;exitPerimeter=0;" edge="1" parent="v0WtC_rdFgd49A6Mksid-1" source="rzHVvmw4vxY7hfCkE267-5">
          <mxGeometry width="50" height="50" relative="1" as="geometry">
            <mxPoint x="190" y="430" as="sourcePoint" />
            <mxPoint x="190.00000000000006" y="314.79" as="targetPoint" />
          </mxGeometry>
        </mxCell>
        <mxCell id="xhXUfuUHp8RXoSItfJEG-18" value="" style="endArrow=none;html=1;entryX=0.106;entryY=0.52;entryDx=0;entryDy=0;entryPerimeter=0;exitX=0.873;exitY=0.76;exitDx=0;exitDy=0;exitPerimeter=0;" edge="1" parent="v0WtC_rdFgd49A6Mksid-1" source="rzHVvmw4vxY7hfCkE267-5">
          <mxGeometry width="50" height="50" relative="1" as="geometry">
            <mxPoint x="440" y="430" as="sourcePoint" />
            <mxPoint x="439.5" y="314.78999999999996" as="targetPoint" />
          </mxGeometry>
        </mxCell>
        <mxCell id="xhXUfuUHp8RXoSItfJEG-19" value="&lt;font style=&quot;font-size: 8px&quot;&gt;Y&lt;/font&gt;" style="text;html=1;strokeColor=none;fillColor=none;align=center;verticalAlign=middle;whiteSpace=wrap;rounded=0;" vertex="1" parent="v0WtC_rdFgd49A6Mksid-1">
          <mxGeometry x="40" y="340" width="30" height="20" as="geometry" />
        </mxCell>
        <mxCell id="xhXUfuUHp8RXoSItfJEG-20" value="&lt;font style=&quot;font-size: 8px&quot;&gt;Y&lt;/font&gt;" style="text;html=1;strokeColor=none;fillColor=none;align=center;verticalAlign=middle;whiteSpace=wrap;rounded=0;" vertex="1" parent="v0WtC_rdFgd49A6Mksid-1">
          <mxGeometry x="150" y="340" width="30" height="20" as="geometry" />
        </mxCell>
        <mxCell id="xhXUfuUHp8RXoSItfJEG-21" value="&lt;font style=&quot;font-size: 8px&quot;&gt;Y&lt;/font&gt;" style="text;html=1;strokeColor=none;fillColor=none;align=center;verticalAlign=middle;whiteSpace=wrap;rounded=0;" vertex="1" parent="v0WtC_rdFgd49A6Mksid-1">
          <mxGeometry x="260" y="340" width="30" height="20" as="geometry" />
        </mxCell>
        <mxCell id="xhXUfuUHp8RXoSItfJEG-22" value="&lt;font style=&quot;font-size: 8px&quot;&gt;Y&lt;/font&gt;" style="text;html=1;strokeColor=none;fillColor=none;align=center;verticalAlign=middle;whiteSpace=wrap;rounded=0;" vertex="1" parent="v0WtC_rdFgd49A6Mksid-1">
          <mxGeometry x="390" y="340" width="30" height="20" as="geometry" />
        </mxCell>
        <mxCell id="xhXUfuUHp8RXoSItfJEG-23" value="&lt;font style=&quot;font-size: 8px&quot;&gt;N&lt;/font&gt;" style="text;html=1;strokeColor=none;fillColor=none;align=center;verticalAlign=middle;whiteSpace=wrap;rounded=0;" vertex="1" parent="v0WtC_rdFgd49A6Mksid-1">
          <mxGeometry x="450" y="340" width="30" height="20" as="geometry" />
        </mxCell>
        <mxCell id="xhXUfuUHp8RXoSItfJEG-24" value="&lt;font style=&quot;font-size: 8px&quot;&gt;N&lt;/font&gt;" style="text;html=1;strokeColor=none;fillColor=none;align=center;verticalAlign=middle;whiteSpace=wrap;rounded=0;" vertex="1" parent="v0WtC_rdFgd49A6Mksid-1">
          <mxGeometry x="330" y="340" width="30" height="20" as="geometry" />
        </mxCell>
        <mxCell id="xhXUfuUHp8RXoSItfJEG-25" value="&lt;font style=&quot;font-size: 8px&quot;&gt;N&lt;/font&gt;" style="text;html=1;strokeColor=none;fillColor=none;align=center;verticalAlign=middle;whiteSpace=wrap;rounded=0;" vertex="1" parent="v0WtC_rdFgd49A6Mksid-1">
          <mxGeometry x="205" y="340" width="30" height="20" as="geometry" />
        </mxCell>
        <mxCell id="xhXUfuUHp8RXoSItfJEG-26" value="&lt;font style=&quot;font-size: 8px&quot;&gt;N&lt;/font&gt;" style="text;html=1;strokeColor=none;fillColor=none;align=center;verticalAlign=middle;whiteSpace=wrap;rounded=0;" vertex="1" parent="v0WtC_rdFgd49A6Mksid-1">
          <mxGeometry x="100" y="340" width="30" height="20" as="geometry" />
        </mxCell>
        <mxCell id="xhXUfuUHp8RXoSItfJEG-27" value="" style="endArrow=none;html=1;entryX=0.106;entryY=0.52;entryDx=0;entryDy=0;entryPerimeter=0;exitX=0.344;exitY=0.76;exitDx=0;exitDy=0;exitPerimeter=0;" edge="1" parent="v0WtC_rdFgd49A6Mksid-1">
          <mxGeometry width="50" height="50" relative="1" as="geometry">
            <mxPoint x="80.83999999999995" y="436.41" as="sourcePoint" />
            <mxPoint x="79.16" y="313.59999999999997" as="targetPoint" />
          </mxGeometry>
        </mxCell>
        <mxCell id="xhXUfuUHp8RXoSItfJEG-28" value="" style="endArrow=none;html=1;entryX=0.106;entryY=0.52;entryDx=0;entryDy=0;entryPerimeter=0;" edge="1" parent="v0WtC_rdFgd49A6Mksid-1">
          <mxGeometry width="50" height="50" relative="1" as="geometry">
            <mxPoint x="310" y="436" as="sourcePoint" />
            <mxPoint x="310" y="313.59999999999997" as="targetPoint" />
          </mxGeometry>
        </mxCell>
        <mxCell id="xhXUfuUHp8RXoSItfJEG-30" value="&lt;span style=&quot;font-size: 8px&quot;&gt;点赞成功&lt;/span&gt;" style="text;html=1;strokeColor=none;fillColor=none;align=center;verticalAlign=middle;whiteSpace=wrap;rounded=0;" vertex="1" parent="v0WtC_rdFgd49A6Mksid-1">
          <mxGeometry x="40" y="400" width="30" height="20" as="geometry" />
        </mxCell>
        <mxCell id="xhXUfuUHp8RXoSItfJEG-31" value="&lt;span style=&quot;font-size: 8px&quot;&gt;收藏成功&lt;/span&gt;" style="text;html=1;strokeColor=none;fillColor=none;align=center;verticalAlign=middle;whiteSpace=wrap;rounded=0;" vertex="1" parent="v0WtC_rdFgd49A6Mksid-1">
          <mxGeometry x="150" y="400" width="30" height="20" as="geometry" />
        </mxCell>
        <mxCell id="xhXUfuUHp8RXoSItfJEG-32" value="&lt;span style=&quot;font-size: 8px&quot;&gt;评论/回复成功&lt;/span&gt;" style="text;html=1;strokeColor=none;fillColor=none;align=center;verticalAlign=middle;whiteSpace=wrap;rounded=0;" vertex="1" parent="v0WtC_rdFgd49A6Mksid-1">
          <mxGeometry x="260" y="400" width="30" height="20" as="geometry" />
        </mxCell>
        <mxCell id="xhXUfuUHp8RXoSItfJEG-34" value="&lt;span style=&quot;font-size: 8px&quot;&gt;发布成功&lt;/span&gt;" style="text;html=1;strokeColor=none;fillColor=none;align=center;verticalAlign=middle;whiteSpace=wrap;rounded=0;" vertex="1" parent="v0WtC_rdFgd49A6Mksid-1">
          <mxGeometry x="390" y="400" width="30" height="20" as="geometry" />
        </mxCell>
        <mxCell id="xhXUfuUHp8RXoSItfJEG-36" value="&lt;span style=&quot;font-size: 8px&quot;&gt;发布失败&lt;/span&gt;" style="text;html=1;strokeColor=none;fillColor=none;align=center;verticalAlign=middle;whiteSpace=wrap;rounded=0;" vertex="1" parent="v0WtC_rdFgd49A6Mksid-1">
          <mxGeometry x="450" y="400" width="30" height="20" as="geometry" />
        </mxCell>
        <mxCell id="xhXUfuUHp8RXoSItfJEG-37" value="&lt;span style=&quot;font-size: 8px&quot;&gt;评论/回复失败&lt;/span&gt;" style="text;html=1;strokeColor=none;fillColor=none;align=center;verticalAlign=middle;whiteSpace=wrap;rounded=0;" vertex="1" parent="v0WtC_rdFgd49A6Mksid-1">
          <mxGeometry x="330" y="400" width="30" height="20" as="geometry" />
        </mxCell>
        <mxCell id="xhXUfuUHp8RXoSItfJEG-38" value="&lt;span style=&quot;font-size: 8px&quot;&gt;收藏失败&lt;/span&gt;" style="text;html=1;strokeColor=none;fillColor=none;align=center;verticalAlign=middle;whiteSpace=wrap;rounded=0;" vertex="1" parent="v0WtC_rdFgd49A6Mksid-1">
          <mxGeometry x="200" y="400" width="30" height="20" as="geometry" />
        </mxCell>
        <mxCell id="xhXUfuUHp8RXoSItfJEG-39" value="&lt;span style=&quot;font-size: 8px&quot;&gt;点赞失败&lt;/span&gt;" style="text;html=1;strokeColor=none;fillColor=none;align=center;verticalAlign=middle;whiteSpace=wrap;rounded=0;" vertex="1" parent="v0WtC_rdFgd49A6Mksid-1">
          <mxGeometry x="90" y="400" width="30" height="20" as="geometry" />
        </mxCell>
        <mxCell id="xhXUfuUHp8RXoSItfJEG-40" value="显示动态详情页面" style="text;html=1;strokeColor=none;fillColor=none;align=center;verticalAlign=middle;whiteSpace=wrap;rounded=0;" vertex="1" parent="v0WtC_rdFgd49A6Mksid-1">
          <mxGeometry x="210" y="460" width="100" height="20" as="geometry" />
        </mxCell>
        <mxCell id="xhXUfuUHp8RXoSItfJEG-41" value="返回首页模块" style="text;html=1;strokeColor=none;fillColor=none;align=center;verticalAlign=middle;whiteSpace=wrap;rounded=0;" vertex="1" parent="v0WtC_rdFgd49A6Mksid-1">
          <mxGeometry x="520" y="320" width="100" height="20" as="geometry" />
        </mxCell>
      </root>
    </mxGraphModel>
  </diagram>
</mxfile>
